<?xml version="1.0" encoding="UTF-8" standalone="no"?>
<!-- Created with Inkscape (http://www.inkscape.org/) -->

<svg
   xmlns:dc="http://purl.org/dc/elements/1.1/"
   xmlns:cc="http://creativecommons.org/ns#"
   xmlns:rdf="http://www.w3.org/1999/02/22-rdf-syntax-ns#"
   xmlns:svg="http://www.w3.org/2000/svg"
   xmlns="http://www.w3.org/2000/svg"
   xmlns:sodipodi="http://sodipodi.sourceforge.net/DTD/sodipodi-0.dtd"
   xmlns:inkscape="http://www.inkscape.org/namespaces/inkscape"
   width="512"
   height="512"
   id="svg2"
   version="1.1"
   inkscape:version="0.48.2 r9819"
   sodipodi:docname="luvit-logo.svg">
  <defs
     id="defs4">
    <filter
       inkscape:collect="always"
       id="filter3833">
      <feGaussianBlur
         inkscape:collect="always"
         stdDeviation="12.048281"
         id="feGaussianBlur3835" />
    </filter>
    <filter
       inkscape:collect="always"
       id="filter3810">
      <feGaussianBlur
         inkscape:collect="always"
         stdDeviation="3.4145498"
         id="feGaussianBlur3812" />
    </filter>
    <filter
       inkscape:collect="always"
       id="filter3956"
       x="-0.039849982"
       width="1.0797"
       y="-0.12137073"
       height="1.2427415">
      <feGaussianBlur
         inkscape:collect="always"
         stdDeviation="4.2681872"
         id="feGaussianBlur3958" />
    </filter>
  </defs>
  <sodipodi:namedview
     id="base"
     pagecolor="#ffffff"
     bordercolor="#666666"
     borderopacity="1.0"
     inkscape:pageopacity="0.0"
     inkscape:pageshadow="2"
     inkscape:zoom="1"
     inkscape:cx="158.27776"
     inkscape:cy="258.26785"
     inkscape:document-units="px"
     inkscape:current-layer="layer1"
     showgrid="false"
     inkscape:window-width="1920"
     inkscape:window-height="1056"
     inkscape:window-x="0"
     inkscape:window-y="24"
     inkscape:window-maximized="1">
    <inkscape:grid
       type="xygrid"
       id="grid2985"
       empspacing="5"
       visible="true"
       enabled="true"
       snapvisiblegridlinesonly="true" />
  </sodipodi:namedview>
  <metadata
     id="metadata7">
    <rdf:RDF>
      <cc:Work
         rdf:about="">
        <dc:format>image/svg+xml</dc:format>
        <dc:type
           rdf:resource="http://purl.org/dc/dcmitype/StillImage" />
        <dc:title />
      </cc:Work>
    </rdf:RDF>
  </metadata>
  <g
     inkscape:label="Layer 1"
     inkscape:groupmode="layer"
     id="layer1"
     transform="translate(0,-540.36218)">
    <path
       sodipodi:nodetypes="czcccczccsccccccccccccccccccccscccszczc"
       inkscape:connector-curvature="0"
       id="path3010"
       d="m 1452.25,612.08093 c -19.3673,3.3e-4 -38.0825,4.32872 -52.4063,9.8125 -14.3237,5.48379 -199.8432,96.78141 -299.8437,145.25 l 0,0.0625 -0.031,0 0.031,53.1875 c 0,0 265.4257,110.48476 273.375,113 7.9493,2.51524 14.3581,3.96833 22.3125,5.6875 8.3002,1.71917 16.7914,3.09349 25.4375,4.125 8.9918,1.37532 17.4518,2.06249 25.4062,2.0625 21.4421,-10e-6 39.937,-2.40508 55.5,-7.21875 15.5628,-5.1575 28.3767,-12.21656 38.4063,-21.15625 10.0292,-9.28349 17.4705,-20.12194 22.3125,-32.5 4.8416,-12.37795 7.2498,-25.93382 7.25,-40.71875 -2e-4,-18.56691 -4.6625,-34.5591 -14,-47.96875 -8.9921,-13.40936 -21.806,-23.56066 -38.4063,-30.4375 12.1043,-6.18883 21.7996,-15.12196 29.0625,-26.8125 7.2625,-11.69015 10.9061,-23.90293 10.9063,-36.625 -2e-4,-12.7216 -2.1001,-24.5908 -6.25,-35.59375 -4.1503,-11.0024 -10.5416,-20.43528 -19.1875,-28.34375 -8.6462,-8.25171 -19.6998,-14.62359 -33.1875,-19.09375 -13.1422,-4.46952 -28.7038,-6.71842 -46.6875,-6.71875 z m 0.5,54.15625 c 12.4502,2.7e-4 22.1455,3.4361 29.0625,10.3125 7.2625,6.53311 10.9061,15.65365 10.9062,27.34375 -10e-5,7.90841 -1.7292,14.43646 -5.1875,19.59375 -3.1127,5.15772 -7.2812,9.2807 -12.4687,12.375 -5.1878,3.09471 -11.0541,5.34361 -17.625,6.71875 -12.9251,2.65397 -29.2171,2.0816 -43.5938,2.0625 l 0,52.59375 19.7188,0 c 20.7504,1.4e-4 37.887,3.43596 51.375,10.3125 13.4877,6.53296 20.2186,18.24601 20.2187,35.09375 -10e-5,13.75343 -4.5082,25.2478 -13.5,34.53125 -8.6462,9.28357 -23.8683,13.93755 -45.6562,13.9375 -17.6381,5e-5 -33.8346,-2.71976 -45.625,-5.6875 -11.7904,-2.96774 -232.5625,-95.1875 -232.5625,-95.1875 0,0 235.3418,-112.4337 248.625,-117.8125 13.2832,-5.3788 24.2079,-6.18723 36.3125,-6.1875 z"
       style="fill:#008000;stroke:none" />
    <path
       sodipodi:nodetypes="cccscccscccsccccccccccccccccccccccccc"
       d="m 1446.5342,945.26709 c -7.9545,-1e-5 -16.4276,-0.68768 -25.4194,-2.063 -8.6462,-1.03151 -17.1193,-2.40684 -25.4195,-4.12601 -7.9544,-1.71917 -15.39,-3.61025 -22.3068,-5.67325 -6.9169,-2.06301 -12.2774,-3.95409 -16.0817,-5.67326 l 12.4504,-53.12233 c 7.9543,3.4384 18.1566,7.04865 30.607,10.83076 12.7961,3.78223 28.0132,5.67331 45.6512,5.67326 21.788,5e-5 37.005,-4.6417 45.6512,-13.92527 8.9918,-9.28345 13.4877,-20.80187 13.4879,-34.5553 -2e-4,-16.84774 -6.7441,-28.53809 -20.2318,-35.07105 -13.488,-6.87654 -30.6072,-10.31488 -51.3576,-10.31502 l -19.713,0 0,-52.60658 c 14.3766,0.0191 30.651,0.59097 43.5761,-2.063 6.5709,-1.37514 12.4502,-3.61005 17.638,-6.70476 5.1875,-3.0943 9.3376,-7.2203 12.4503,-12.37802 3.4583,-5.15729 5.1875,-11.69012 5.1877,-19.59853 -2e-4,-11.6901 -3.6315,-20.80168 -10.8941,-27.33479 -6.917,-6.8764 -16.6006,-10.31474 -29.0508,-10.31501 -12.1046,2.7e-4 -24.209,2.06327 -36.3134,6.18901 -11.7587,3.78243 -21.9611,8.5961 -30.6071,14.44102 l -24.9684,-45.70328 c 9.3377,-6.18871 23.7579,-13.09199 38.975,-19.28131 15.5629,-6.53253 33.0279,-9.79894 52.3952,-9.79927 17.9837,3.3e-4 33.5466,2.23524 46.6887,6.70476 13.4877,4.47016 24.5546,10.83107 33.2009,19.08278 8.6459,7.90847 15.0439,17.36389 19.1942,28.36629 4.1499,11.00295 6.225,22.8652 6.2252,35.5868 -2e-4,12.72207 -3.6315,24.92816 -10.894,36.61831 -7.2629,11.69054 -16.9465,20.6302 -29.0508,26.81903 16.6003,6.87684 29.3964,17.01994 38.3885,30.4293 9.3375,13.40965 14.0064,29.39791 14.0066,47.96482 -2e-4,14.78493 -2.4211,28.36636 -7.2627,40.74431 -4.842,12.37806 -12.2776,23.20881 -22.3068,32.4923 -10.0296,8.93969 -22.8258,15.98828 -38.3885,21.14578 -15.5631,4.81367 -34.0656,7.2205 -55.5077,7.22051"
       style="font-size:517.25506592px;font-style:normal;font-variant:normal;font-weight:bold;font-stretch:normal;line-height:125%;letter-spacing:0px;word-spacing:0px;fill:#ff0000;fill-opacity:1;stroke:none;font-family:Ubuntu Mono;-inkscape-font-specification:Ubuntu Mono Bold"
       id="path3005"
       inkscape:connector-curvature="0" />
    <path
       sodipodi:nodetypes="cccccccc"
       d="m 1100,767.13234 194.2053,-94.46444 20.4951,47.84394 -147.0396,69.78826 149.1824,61.93112 -17.6379,51.70108 L 1100,820.38067 l 0,-53.24833"
       style="font-size:517.25506592px;font-style:normal;font-variant:normal;font-weight:bold;font-stretch:normal;line-height:125%;letter-spacing:0px;word-spacing:0px;fill:#ff0000;fill-opacity:1;stroke:none;font-family:Ubuntu Mono;-inkscape-font-specification:Ubuntu Mono Bold"
       id="path3002"
       inkscape:connector-curvature="0" />
    <path
       style="fill:#666666;stroke:none"
       d="m 1452.25,612.08093 c -19.3673,3.3e-4 -38.0825,4.32872 -52.4063,9.8125 -3.3541,1.28414 -16.3544,7.39392 -35.1875,16.4375 l 22.75,47.53125 c 14.8499,-6.97538 26.5649,-12.43878 29.0313,-13.4375 13.2832,-5.3788 24.2079,-6.18723 36.3125,-6.1875 12.4502,2.7e-4 22.1455,3.4361 29.0625,10.3125 7.2625,6.53311 10.9061,15.65365 10.9062,27.34375 -10e-5,7.90841 -1.7292,14.43646 -5.1875,19.59375 -3.1127,5.15772 -7.2812,9.2807 -12.4687,12.375 -5.1878,3.09471 -11.0541,5.34361 -17.625,6.71875 -12.9251,2.65397 -29.2171,2.0816 -43.5938,2.0625 l 0,52.59375 19.7188,0 c 20.7504,1.4e-4 37.887,3.43596 51.375,10.3125 13.4877,6.53296 20.2186,18.24601 20.2187,35.09375 -10e-5,13.75343 -4.5082,25.2478 -13.5,34.53125 -8.6462,9.28357 -23.8683,13.93755 -45.6562,13.9375 -17.6381,5e-5 -33.8346,-2.71976 -45.625,-5.6875 -1.3116,-0.33013 -5.5455,-1.8983 -11.4375,-4.1875 l -20.7813,50.125 c 2.7554,1.10006 4.6785,1.86028 5.2188,2.03125 7.9493,2.51524 14.3581,3.96833 22.3125,5.6875 8.3002,1.71917 16.7914,3.09349 25.4375,4.125 8.9918,1.37532 17.4518,2.06249 25.4062,2.0625 21.4421,-10e-6 39.937,-2.40508 55.5,-7.21875 15.5628,-5.1575 28.3767,-12.21656 38.4063,-21.15625 10.0292,-9.28349 17.4705,-20.12194 22.3125,-32.5 4.8416,-12.37795 7.2498,-25.93382 7.25,-40.71875 -2e-4,-18.56691 -4.6625,-34.5591 -14,-47.96875 -8.9921,-13.40936 -21.806,-23.56066 -38.4063,-30.4375 12.1043,-6.18883 21.7996,-15.12196 29.0625,-26.8125 7.2625,-11.69015 10.9061,-23.90293 10.9063,-36.625 -2e-4,-12.7216 -2.1001,-24.5908 -6.25,-35.59375 -4.1503,-11.0024 -10.5416,-20.43528 -19.1875,-28.34375 -8.6462,-8.25171 -19.6998,-14.62359 -33.1875,-19.09375 -13.1422,-4.46952 -28.7038,-6.71842 -46.6875,-6.71875 z m -159.3125,61.03125 C 1230.0066,703.75975 1153.1627,741.37632 1100,767.14343 l 0,0.0625 -0.031,0 0.031,53.1875 c 0,0 113.5985,47.29367 194.4375,80.71875 l 20.625,-49.84375 c -66.4757,-27.33355 -147.25,-61.03125 -147.25,-61.03125 0,0 78.5503,-37.51325 147.5312,-70.28125 l -22.4062,-46.84375 z"
       id="path3000"
       inkscape:connector-curvature="0" />
    <g
       id="g3824">
      <path
         transform="matrix(0.98677459,0,0,1,4.295296,-46)"
         sodipodi:nodetypes="cccccsccccccccccccccccccccscccszczc"
         inkscape:connector-curvature="0"
         id="path3019"
         d="m 372.25,612.08093 c -19.36728,3.3e-4 -38.08254,4.32872 -52.40625,9.8125 -303.304607,118.95748 -337.84981,200.4706 -26.46875,311.5 7.94929,2.51524 14.35808,3.96833 22.3125,5.6875 8.30016,1.71917 16.79136,3.09349 25.4375,4.125 8.99181,1.37532 17.45177,2.06249 25.40625,2.0625 21.4421,-10e-6 39.93694,-2.40508 55.5,-7.21875 15.56273,-5.1575 28.37662,-12.21656 38.40625,-21.15625 10.0292,-9.28349 17.4705,-20.12194 22.3125,-32.5 4.8416,-12.37795 7.2498,-25.93382 7.25,-40.71875 -2e-4,-18.56691 -4.6625,-34.5591 -14,-47.96875 -8.9921,-13.40936 -21.806,-23.56066 -38.40625,-30.4375 12.10429,-6.18883 21.79959,-15.12196 29.06245,-26.8125 7.2625,-11.69015 10.9061,-23.90293 10.9063,-36.625 -2e-4,-12.7216 -2.1001,-24.5908 -6.25,-35.59375 -4.1503,-11.0024 -10.5416,-20.43528 -19.1875,-28.34375 -8.64624,-8.25171 -19.69982,-14.62359 -33.1875,-19.09375 -13.14216,-4.46952 -28.70382,-6.71842 -46.6875,-6.71875 z m 0.5,54.15625 c 12.45019,2.7e-4 22.14552,3.4361 29.0625,10.3125 7.26254,6.53311 10.90609,15.65365 10.90625,27.34375 -1.6e-4,7.90841 -1.72924,14.43646 -5.1875,19.59375 -3.11274,5.15772 -7.28127,9.2807 -12.46875,12.375 -5.18778,3.09471 -11.05412,5.34361 -17.625,6.71875 -12.92511,2.65397 -29.21708,2.0816 -43.59375,2.0625 l 0,52.59375 19.71875,0 c 20.75044,1.4e-4 37.88702,3.43596 51.375,10.3125 13.4877,6.53296 20.21858,18.24601 20.21875,35.09375 -1.7e-4,13.75343 -4.50826,25.2478 -13.5,34.53125 -8.64622,9.28357 -23.8683,13.93755 -45.65625,13.9375 -17.63805,5e-5 -33.83455,-2.71976 -45.625,-5.6875 -11.79045,-2.96774 -232.5625,-95.1875 -232.5625,-95.1875 0,0 235.34175,-112.4337 248.625,-117.8125 13.28325,-5.3788 24.2079,-6.18723 36.3125,-6.1875 z"
         style="fill:#0084c8;stroke:none;filter:url(#filter3833)" />
      <path
         sodipodi:nodetypes="ccccsccccccccscccsccccccsccccccscccccccccccccc"
         inkscape:connector-curvature="0"
         style="fill:#000000;stroke:#000000;stroke-width:31.7876873;stroke-miterlimit:4;stroke-opacity:0.30593609;stroke-dasharray:none"
         d="m 371.62214,566.0809 c -19.11114,4e-4 -37.57888,4.3287 -51.71316,9.8125 -3.30983,1.2842 -16.13815,7.3939 -34.72213,16.4375 l 22.44913,47.5313 c 14.65346,-6.9754 26.2135,-12.4388 28.64729,-13.4375 13.10758,-5.3788 23.88774,-6.1873 35.83226,-6.1875 12.28552,2e-4 21.85263,3.4361 28.67813,10.3125 7.1665,6.5331 10.76186,15.6536 10.76201,27.3437 -1.5e-4,7.9084 -1.70637,14.4365 -5.11889,19.5938 -3.07158,5.1577 -7.18497,9.2807 -12.30385,12.375 -5.11917,3.0947 -10.90792,5.3436 -17.3919,6.7187 -12.75417,2.654 -28.83067,2.0816 -43.0172,2.0625 l 0,52.5938 19.45796,0 c 20.476,10e-5 37.38595,3.4359 50.69555,10.3125 13.30931,6.5329 19.95117,18.246 19.95134,35.0937 -1.7e-4,13.7535 -4.44864,25.2478 -13.32145,34.5313 -8.53188,9.2836 -23.55264,13.9375 -45.05244,13.9375 -17.40477,0 -33.38706,-2.7198 -45.02159,-5.6875 -1.29422,-0.3302 -5.47213,-1.8983 -11.28623,-4.1875 l -20.50641,50.125 c 2.71891,1.1 4.61655,1.8603 5.14973,2.0312 7.84415,2.5153 14.16819,3.9684 22.01741,5.6875 8.19038,1.7192 16.56929,3.0935 25.10108,4.125 8.87289,1.3753 17.22096,2.0625 25.07024,2.0625 21.15852,0 39.40876,-2.4051 54.76599,-7.2187 15.35691,-5.1575 28.00133,-12.2166 37.89831,-21.1563 9.89658,-9.2835 17.23944,-20.1219 22.01741,-32.5 4.77755,-12.3779 7.15388,-25.9338 7.15412,-40.7187 -2.4e-4,-18.5669 -4.60083,-34.5591 -13.81485,-47.9688 -8.87319,-13.4093 -21.5176,-23.5606 -37.89831,-30.4375 11.94421,-6.1888 21.51128,-15.1219 28.67813,-26.8125 7.16643,-11.6901 10.7618,-23.9029 10.76202,-36.625 -2.2e-4,-12.7216 -2.07233,-24.5908 -6.16734,-35.5937 -4.09544,-11.0024 -10.40221,-20.4353 -18.93374,-28.3438 -8.53189,-8.2517 -19.43928,-14.6236 -32.74859,-19.0937 -12.96834,-4.4695 -28.32419,-6.7184 -46.07003,-6.7188 z M 214.41661,627.1122 C 152.31803,657.7598 76.490433,695.3763 24.030788,721.1434 l 0,0.062 c -0.05125,17.66077 -0.01027,35.4726 0,53.188 0,0 112.096142,47.2937 191.865982,80.7188 l 20.35222,-49.8438 C 170.65244,777.9349 90.946439,744.2372 90.946439,744.2372 c 0,0 77.511421,-37.5133 145.580091,-70.2813 z"
         id="path3017" />
    </g>
    <g
       id="g3814">
      <text
         sodipodi:linespacing="125%"
         id="text3008"
         y="1004.502"
         x="43.771843"
         style="font-size:105.35205078px;font-style:normal;font-weight:normal;line-height:125%;letter-spacing:0px;word-spacing:0px;fill:#000000;fill-opacity:1;stroke:none;font-family:Sans;-inkscape-font-specification:Ubuntu Bold"
         xml:space="preserve"><tspan
           dx="0 0 0 -6 0 0 -2 -3"
           style="font-style:normal;font-variant:normal;font-weight:bold;font-stretch:normal;font-family:Ubuntu;-inkscape-font-specification:Ubuntu Bold"
           y="1004.502"
           x="43.771843"
           id="tspan3010"
           sodipodi:role="line">L<tspan
   id="tspan3012"
   style="font-size:20px">ua</tspan>uv<tspan
   dx="-4"
   id="tspan3016"
   style="font-size:20px">j</tspan>it</tspan></text>
      <text
         xml:space="preserve"
         style="font-size:105.35205078000001322px;font-style:normal;font-weight:normal;line-height:125%;letter-spacing:0px;word-spacing:0px;fill:#0084c8;fill-opacity:1;stroke:none;font-family:Sans;-inkscape-font-specification:Ubuntu Bold;opacity:0.63786008000000005;filter:url(#filter3956)"
         x="43.771843"
         y="1004.502"
         id="text3018"
         sodipodi:linespacing="125%"><tspan
           sodipodi:role="line"
           id="tspan3020"
           x="43.771843"
           y="1004.502"
           style="font-style:normal;font-variant:normal;font-weight:bold;font-stretch:normal;font-family:Ubuntu;-inkscape-font-specification:Ubuntu Bold;fill:#0084c8"
           dx="0 0 0 -6 0 0 -2 -3">L<tspan
   style="font-size:20px;fill:#0084c8"
   id="tspan3022">ua</tspan>uv<tspan
   style="font-size:20px;fill:#0084c8"
   id="tspan3024"
   dx="-4">j</tspan>it</tspan></text>
    </g>
  </g>
</svg>
